<?xml version="1.0" encoding="UTF-8" standalone="no"?>
<svg width="220px" height="102px" viewBox="0 0 220 102" version="1.1" xmlns="http://www.w3.org/2000/svg" xmlns:xlink="http://www.w3.org/1999/xlink">
    <!-- Generator: sketchtool 42 (36781) - http://www.bohemiancoding.com/sketch -->
    <title>E0994F7F-A012-4BBF-9584-B4382BA4C88F</title>
    <desc>Created with sketchtool.</desc>
    <defs></defs>
    <g id="Page-1" stroke="none" stroke-width="1" fill="none" fill-rule="evenodd" stroke-linecap="round" stroke-linejoin="round">
        <g id="marafon__iconset" transform="translate(-720.000000, -18.000000)" stroke="#99BCE6">
            <g id="Group-3" transform="translate(721.000000, 20.000000)">
                <path d="M191.985265,86 L96.3735343,86" id="Path-9" stroke-width="4"></path>
                <path d="M76.0622557,86 L66.3735343,86" id="Path-9" stroke-width="4"></path>
                <path d="M216.062256,86 L206.373534,86" id="Path-9" stroke-width="4"></path>
                <path d="M56.0622557,86 L1,86" id="Path-9" stroke-width="4"></path>
                <path d="M13.2734375,47.1640625 C13.2734375,47.1640625 30.1015625,14.3588325 42.703125,24.6289063 C55.3046875,34.89898 52.3398437,47.1640625 65.71875,47.1640625 C79.0976562,47.1640625 90.890625,0.94140625 105.5625,0.94140625 C120.234375,0.94140625 119.71875,27.1796875 129.132812,31.8867188" id="Path-10" stroke-width="4"></path>
                <path d="M166,98 L166,19.9641513" id="Path-11" stroke-width="4"></path>
                <path d="M165.865142,7.62625265 L181.167486,32.6012793 L171.390861,33.1821294 L185.228851,51.4575085 L172.072596,51.4575085 L191.233007,70.5567776 L165.386705,70.3274947" id="Path-12" stroke-width="4"></path>
                <path d="M140.865142,7.62625265 L156.167486,32.6012793 L146.390861,33.1821294 L160.228851,51.4575085 L147.072596,51.4575085 L166.233007,70.5567776 L140.386705,70.3274947" id="Path-12" stroke-width="4" transform="translate(153.309856, 39.091515) scale(-1, 1) translate(-153.309856, -39.091515) "></path>
                <path d="M109.945651,11.6078245 C109.945651,11.6078245 106.346378,8.37509544 102.089552,12.2694771 C97.832725,16.1638587 94.8224986,21.9319468 94.0004099,23.0924737" id="Path-18" stroke-width="3"></path>
                <path d="M91.144855,28.0272571 L88.7722743,31.8443484" id="Path-19" stroke-width="3"></path>
            </g>
        </g>
    </g>
</svg>