<?xml version="1.0" encoding="UTF-8" standalone="no"?>
<svg width="16px" height="11px" viewBox="0 0 16 11" version="1.1" xmlns="http://www.w3.org/2000/svg" xmlns:xlink="http://www.w3.org/1999/xlink">
    <!-- Generator: sketchtool 42 (36781) - http://www.bohemiancoding.com/sketch -->
    <title>0F3F1ED1-F5D9-4026-8E68-54DE4C9BC0D0</title>
    <desc>Created with sketchtool.</desc>
    <defs></defs>
    <g id="Page-1" stroke="none" stroke-width="1" fill="none" fill-rule="evenodd">
        <g id="marafon__iconset" transform="translate(-433.000000, -81.000000)" fill-rule="nonzero" fill="#019846">
            <g id="Group-6" transform="translate(433.000000, 81.000000)">
                <path d="M14.85775,2.95575 L7.331875,10.481625 C7.011875,10.801625 6.5865,10.97775 6.134,10.97775 C5.6815,10.97775 5.256125,10.801625 4.936125,10.481625 L1.1005,6.646 C0.7805,6.326 0.60425,5.900625 0.60425,5.448125 C0.60425,4.9955 0.7805,4.570125 1.1005,4.250125 C1.420375,3.930125 1.84575,3.753875 2.298375,3.753875 C2.750875,3.753875 3.176375,3.930125 3.49625,4.25025 L6.133875,6.88775 L12.46175,0.559875 C12.78175,0.239875 13.207125,0.06375 13.659625,0.06375 C14.112125,0.06375 14.5375,0.239875 14.8575,0.559875 C15.51825,1.220625 15.51825,2.29525 14.85775,2.95575 Z" id="Shape"></path>
            </g>
        </g>
    </g>
</svg>