<?xml version="1.0" encoding="UTF-8" standalone="no"?>
<svg width="29px" height="23px" viewBox="0 0 29 23" version="1.1" xmlns="http://www.w3.org/2000/svg" xmlns:xlink="http://www.w3.org/1999/xlink">
    <!-- Generator: sketchtool 42 (36781) - http://www.bohemiancoding.com/sketch -->
    <title>6FAB1F7F-EEF2-4FD2-8783-6152B3E93B0A</title>
    <desc>Created with sketchtool.</desc>
    <defs></defs>
    <g id="Page-1" stroke="none" stroke-width="1" fill="none" fill-rule="evenodd">
        <g id="marafon__iconset" transform="translate(-436.000000, -119.000000)" stroke="#FFFFFF" stroke-width="3" fill="#000000" fill-rule="nonzero">
            <g id="Group-6" transform="translate(437.000000, 121.000000)">
                <path d="M25.3888716,5.02873859 L12.3025444,18.1150657 C11.7461142,18.671496 11.0064531,18.97775 10.2196259,18.97775 C9.43279876,18.97775 8.69313774,18.671496 8.13670747,18.1150657 L1.46715163,11.4455099 C0.910721361,10.8890796 0.60425,10.1494186 0.60425,9.36259141 C0.60425,8.57554687 0.910721361,7.83588585 1.46715163,7.27945558 C2.02336455,6.7230253 2.76302557,6.41655394 3.55007011,6.41655394 C4.3368973,6.41655394 5.07677568,6.7230253 5.63298859,7.27967293 L10.2194086,11.8658756 L21.2225999,0.862684279 C21.7790302,0.306254006 22.5186912,0 23.3055184,0 C24.0923455,0 24.8320066,0.306254006 25.3884368,0.862684279 C26.5373784,2.01162585 26.5373784,3.88023173 25.3888716,5.02873859 Z" id="Shape"></path>
            </g>
        </g>
    </g>
</svg>