<?xml version="1.0" encoding="UTF-8" standalone="no"?>
<svg width="28px" height="28px" viewBox="0 0 28 28" version="1.1" xmlns="http://www.w3.org/2000/svg" xmlns:xlink="http://www.w3.org/1999/xlink">
    <!-- Generator: sketchtool 42 (36781) - http://www.bohemiancoding.com/sketch -->
    <title>F0B72AA4-FBED-439F-BAB8-0B5BA6B1E018</title>
    <desc>Created with sketchtool.</desc>
    <defs>
        <linearGradient x1="50%" y1="0%" x2="50%" y2="100%" id="linearGradient-1">
            <stop stop-color="#FEAB49" offset="0%"></stop>
            <stop stop-color="#D93282" offset="49.6552136%"></stop>
            <stop stop-color="#9935A8" offset="100%"></stop>
        </linearGradient>
        <linearGradient x1="50%" y1="100%" x2="50%" y2="3.061617e-15%" id="linearGradient-2">
            <stop stop-color="#FEAB49" offset="0%"></stop>
            <stop stop-color="#D93282" offset="49.6552136%"></stop>
            <stop stop-color="#9935A8" offset="100%"></stop>
        </linearGradient>
    </defs>
    <g id="Page-1" stroke="none" stroke-width="1" fill="none" fill-rule="evenodd">
        <g id="marafon__iconset" transform="translate(-405.000000, -168.000000)">
            <g id="instagram" transform="translate(405.000000, 168.000000)">
                <path d="M20.1272384,9.11936 C20.6783448,9.11936 21.1276405,8.67086905 21.1276405,8.11936 C21.1276405,7.90165376 21.0564131,7.70064773 20.9385057,7.53646262 C20.7568156,7.28455115 20.4614435,7.11936 20.127842,7.11936 C19.7940393,7.11936 19.4988683,7.28434994 19.3167758,7.53626141 C19.198466,7.70044652 19.1278423,7.90145256 19.1276411,8.11915879 C19.1270375,8.67066785 19.5759307,9.11936 20.1272384,9.11936 L20.1272384,9.11936 Z" id="Shape" fill="url(#linearGradient-1)"></path>
                <path d="M0,14 C0,6.28043181 6.28043181,0 14,0 C21.7201321,0 28,6.28043181 28,14 C28,21.7190043 21.7190043,28 14,28 C6.28043181,28 0,21.7190043 0,14 Z M14,2.99722415 C7.93462499,2.99722415 3,7.93184914 3,13.9972241 C3,20.0621561 7.93462499,24.9972241 14,24.9972241 C20.0649319,24.9972241 25,20.0621561 25,13.9972241 C25,7.93184914 20.0658181,2.99722415 14,2.99722415 Z" id="Combined-Shape" fill="url(#linearGradient-2)"></path>
                <path d="M8,14 C8,10.6916136 10.6916136,8 14,8 C17.3086281,8 20,10.6916136 20,14 C20,17.3081447 17.3081447,20 14,20 C10.6916136,20 8,17.3081447 8,14 Z M10,14 C10,16.2054298 11.7944091,18 14,18 C16.2054298,18 18,16.2054298 18,14 C18,11.7944091 16.205752,10 14,10 C11.7944091,10 10,11.7944091 10,14 Z" id="Combined-Shape" fill="url(#linearGradient-2)"></path>
            </g>
        </g>
    </g>
</svg>