<?xml version="1.0" encoding="UTF-8" standalone="no"?>
<svg width="24px" height="39px" viewBox="0 0 24 39" version="1.1" xmlns="http://www.w3.org/2000/svg" xmlns:xlink="http://www.w3.org/1999/xlink">
    <!-- Generator: sketchtool 42 (36781) - http://www.bohemiancoding.com/sketch -->
    <title>0D8775C8-E7A1-44BB-B5EF-55F4BB90970D</title>
    <desc>Created with sketchtool.</desc>
    <defs></defs>
    <g id="Page-1" stroke="none" stroke-width="1" fill="none" fill-rule="evenodd">
        <g id="marafon__iconset" transform="translate(-425.000000, -20.000000)" fill-rule="nonzero" fill="#FFFFFF">
            <g id="mouse" transform="translate(425.000000, 20.000000)">
                <g id="Capa_1">
                    <path d="M21.5528362,3.74257419 C19.442007,1.25923871 16.2280139,0 12,0 C7.77198606,0 4.55799303,1.25923871 2.44716376,3.74257419 C0.324794425,6.23949677 0.00794425087,9.16483226 0.00794425087,10.6864194 L0.00794425087,28.3136645 C0.00794425087,29.8352516 0.324794425,32.7605871 2.44716376,35.2575097 C4.55799303,37.7408452 7.77198606,39 12,39 C16.2280139,39 19.442007,37.7408452 21.5528362,35.2575097 C23.6752056,32.7605871 23.9920557,29.8352516 23.9920557,28.3136645 L23.9920557,10.6864194 C23.9920557,9.16483226 23.6752056,6.23949677 21.5528362,3.74257419 Z M12,13.5870968 C11.1238746,13.5870968 10.4111498,12.8722645 10.4111498,11.9935484 L10.4111498,8.57865806 C10.4111498,7.69994194 11.1238746,6.98510968 12,6.98510968 C12.8761254,6.98510968 13.5888502,7.69994194 13.5888502,8.57865806 L13.5888502,11.9935484 C13.5888502,12.8722645 12.8761254,13.5870968 12,13.5870968 Z M22.7377003,28.3136645 C22.7377003,29.8880065 22.2200697,37.7419355 12,37.7419355 C1.77993031,37.7419355 1.26229965,29.8880065 1.26229965,28.3136645 L1.26229965,10.6864194 C1.26229965,9.14495484 1.7601115,1.58507742 11.3728223,1.26947097 L11.3728223,5.79783226 C10.1059233,6.08517419 9.15679443,7.22238065 9.15679443,8.57865806 L9.15679443,11.9935484 C9.15679443,13.3498258 10.1059233,14.4870323 11.3728223,14.7743742 L11.3728223,19.9431742 C11.3728223,20.2906516 11.653547,20.5722065 12,20.5722065 C12.346453,20.5722065 12.6271777,20.2906516 12.6271777,19.9431742 L12.6271777,14.7743742 C13.8940767,14.4870323 14.8432056,13.3498258 14.8432056,11.9935484 L14.8432056,8.57865806 C14.8432056,7.22238065 13.8940767,6.08517419 12.6271777,5.79783226 L12.6271777,1.26947097 C22.2399721,1.58516129 22.7377003,9.14495484 22.7377003,10.6864194 L22.7377003,28.3136645 Z" id="Shape"></path>
                </g>
            </g>
        </g>
    </g>
</svg>