<?xml version="1.0" encoding="UTF-8" standalone="no"?>
<svg width="72px" height="72px" viewBox="0 0 72 72" version="1.1" xmlns="http://www.w3.org/2000/svg" xmlns:xlink="http://www.w3.org/1999/xlink">
    <!-- Generator: sketchtool 42 (36781) - http://www.bohemiancoding.com/sketch -->
    <title>82BED2F5-E7BD-4D83-9D15-02F32E1038F1</title>
    <desc>Created with sketchtool.</desc>
    <defs></defs>
    <g id="Page-1" stroke="none" stroke-width="1" fill="none" fill-rule="evenodd">
        <g id="marafon__iconset" transform="translate(-332.000000, -20.000000)" fill-rule="nonzero" fill="#FFFFFF">
            <g id="play" transform="translate(332.000000, 20.000000)">
                <g id="Layer_1">
                    <path d="M61.4559375,10.5440625 C54.6562969,3.7445625 45.6159375,0 36,0 C26.3840625,0 17.3437031,3.7445625 10.5440625,10.5440625 C3.7445625,17.3437031 0,26.3840625 0,36 C0,45.6159375 3.7445625,54.6562969 10.5440625,61.4559375 C17.3437031,68.2554375 26.3840625,72 36,72 C45.6159375,72 54.6562969,68.2554375 61.4559375,61.4559375 C68.2554375,54.6562969 72,45.6159375 72,36 C72,26.3840625 68.2554375,17.3437031 61.4559375,10.5440625 Z M36,69.1315312 C17.7312656,69.1315312 2.86846875,54.268875 2.86846875,36 C2.86846875,17.731125 17.7312656,2.86846875 36,2.86846875 C54.2687344,2.86846875 69.1315313,17.7312656 69.1315313,36 C69.1315313,54.2687344 54.2687344,69.1315312 36,69.1315312 Z" id="Shape"></path>
                    <path d="M52.1205469,32.1409688 L31.5071719,18.2010938 C30.0758906,17.2333125 28.2389063,17.1355781 26.7129844,17.9454375 C25.1869219,18.7557188 24.2389688,20.3324063 24.2389688,22.0599844 L24.2389688,49.9397344 C24.2389688,51.6674531 25.1869219,53.244 26.7129844,54.0541406 C27.4002188,54.4190625 28.1504531,54.5997656 28.8982969,54.5997656 C29.8110938,54.5997656 30.720375,54.3306094 31.5070313,53.7984844 L52.1204063,39.8586094 C53.4033281,38.9910938 54.1693125,37.5484219 54.1693125,35.9997188 C54.1694531,34.4511563 53.4034688,33.008625 52.1205469,32.1409688 Z M50.5134844,37.4824687 L29.9001094,51.4223437 C29.3419688,51.7997812 28.6534688,51.8367656 28.0580625,51.5206406 C27.4629375,51.2046562 27.1075781,50.61375 27.1075781,49.9397344 L27.1075781,22.0599844 C27.1075781,21.3861094 27.4627969,20.7950625 28.0580625,20.4790781 C28.3267969,20.3364844 28.6145156,20.2656094 28.9006875,20.2656094 C29.2484531,20.2656094 29.5938281,20.3702344 29.90025,20.5772344 L50.5134844,34.5168281 C51.0139688,34.8551719 51.3007031,35.3955937 51.3007031,35.9995781 C51.3007031,36.6037031 51.0136875,37.144125 50.5134844,37.4824687 Z" id="Shape"></path>
                    <path d="M63.3325781,25.1430469 C60.2859375,17.4792656 54.115875,11.4101719 46.4044219,8.49192187 C45.6634687,8.21151562 44.83575,8.584875 44.5553437,9.3256875 C44.2747969,10.0665 44.6481562,10.8943594 45.3891094,11.1747656 C52.3486406,13.8083906 57.91725,19.2860156 60.6670312,26.2027969 C60.8904844,26.7650156 61.4297812,27.1075781 62.0001562,27.1075781 C62.1763594,27.1075781 62.3556562,27.0746719 62.52975,27.0057656 C63.2657812,26.713125 63.6253594,25.8790781 63.3325781,25.1430469 Z" id="Shape"></path>
                    <path d="M40.9740469,7.01690625 C39.3422344,6.73860937 37.6687969,6.59770312 36,6.59770312 C35.2078594,6.59770312 34.5657656,7.23979687 34.5657656,8.0319375 C34.5657656,8.82407812 35.2078594,9.46617187 36,9.46617187 C37.5076406,9.46617187 39.0189375,9.59357812 40.4919844,9.84459375 C40.5734063,9.85851562 40.6546875,9.86526562 40.7347031,9.86526562 C41.4209531,9.86526562 42.02775,9.37110937 42.1468594,8.67192187 C42.2798906,7.89089062 41.7547969,7.1499375 40.9740469,7.01690625 Z" id="Shape"></path>
                </g>
            </g>
        </g>
    </g>
</svg>