<?xml version="1.0" encoding="UTF-8" standalone="no"?>
<svg width="220px" height="124px" viewBox="0 0 220 124" version="1.1" xmlns="http://www.w3.org/2000/svg" xmlns:xlink="http://www.w3.org/1999/xlink">
    <!-- Generator: sketchtool 42 (36781) - http://www.bohemiancoding.com/sketch -->
    <title>AAEE5693-323F-45FB-A288-101811F9A88A</title>
    <desc>Created with sketchtool.</desc>
    <defs>
        <rect id="path-1" x="44" y="34" width="72" height="72" rx="8"></rect>
        <mask id="mask-2" maskContentUnits="userSpaceOnUse" maskUnits="objectBoundingBox" x="0" y="0" width="72" height="72" fill="white">
            <use xlink:href="#path-1"></use>
        </mask>
        <rect id="path-3" x="88.0928655" y="59.2235348" width="70" height="43" rx="8"></rect>
        <mask id="mask-4" maskContentUnits="userSpaceOnUse" maskUnits="objectBoundingBox" x="0" y="0" width="70" height="43" fill="white">
            <use xlink:href="#path-3"></use>
        </mask>
        <rect id="path-5" x="108.651604" y="74.661822" width="70" height="43" rx="8"></rect>
        <mask id="mask-6" maskContentUnits="userSpaceOnUse" maskUnits="objectBoundingBox" x="0" y="0" width="70" height="43" fill="white">
            <use xlink:href="#path-5"></use>
        </mask>
    </defs>
    <g id="Page-1" stroke="none" stroke-width="1" fill="none" fill-rule="evenodd">
        <g id="marafon__iconset" transform="translate(-720.000000, -286.000000)" stroke="#99BCE6">
            <g id="Group-4" transform="translate(721.000000, 288.000000)">
                <path d="M191.985265,95 L96.3735343,95" id="Path-9" stroke-width="4" stroke-linecap="round" stroke-linejoin="round"></path>
                <path d="M76.0622557,95 L75,95" id="Path-9" stroke-width="4" stroke-linecap="round" stroke-linejoin="round"></path>
                <path d="M216.062256,95 L206.373534,95" id="Path-9" stroke-width="4" stroke-linecap="round" stroke-linejoin="round"></path>
                <path d="M56.0622557,95 L1,95" id="Path-9" stroke-width="4" stroke-linecap="round" stroke-linejoin="round"></path>
                <use id="Rectangle-4" mask="url(#mask-2)" stroke-width="8" fill="#FFFFFF" xlink:href="#path-1"></use>
                <use id="Rectangle-3" mask="url(#mask-4)" stroke-width="8" fill="#FFFFFF" transform="translate(123.092865, 80.723535) rotate(-19.000000) translate(-123.092865, -80.723535) " xlink:href="#path-3"></use>
                <use id="Rectangle-3" mask="url(#mask-6)" stroke-width="8" fill="#FFFFFF" transform="translate(143.651604, 96.161822) rotate(-8.000000) translate(-143.651604, -96.161822) " xlink:href="#path-5"></use>
                <path d="M61,36 C61,36 69.5619979,88.4675983 87.5494975,104.114548" id="Path-8" stroke-width="3"></path>
                <path d="M46,84.187349 C46,84.187349 76.1885495,53.6141184 113.569177,57.3099798" id="Path-13" stroke-width="3"></path>
                <path d="M89,36.1477667 C89,36.1477667 137.348101,20.3953137 125.04804,3.50991774 C112.747979,-13.3754782 89,36.1477667 89,36.1477667 Z" id="Path-14" stroke-width="3" stroke-linecap="round" stroke-linejoin="round"></path>
                <path d="M88.3605336,36.2363208 C88.3605336,36.2363208 86.5345151,-5.54298253 71.1310346,3.20405188 C55.7275541,11.9510863 88.3605336,36.2363208 88.3605336,36.2363208 Z" id="Path-14" stroke-width="3" stroke-linecap="round" stroke-linejoin="round"></path>
                <path d="M88.582823,35.0546538 C88.582823,35.0546538 72.5950165,34.8404009 58.7172759,20.1608353 C44.8395353,5.48126965 27.911938,19.8670492 27.911938,19.8670492" id="Path-15" stroke-width="3" stroke-linecap="round" stroke-linejoin="round"></path>
                <path d="M88.1045426,35.8088667 C88.1045426,35.8088667 62.6587718,39.210942 50,28" id="Path-16" stroke-width="3" stroke-linecap="round" stroke-linejoin="round"></path>
                <path d="M167.597419,91.2278956 C167.597419,91.2278956 169.616444,99.6974945 167.597419,102.482437 C165.578394,105.26738 158.090201,105.21507 158.090201,105.21507" id="Path-17" stroke-width="3" stroke-linecap="round" stroke-linejoin="round"></path>
                <path d="M166.761948,86.0020233 L166.48385,84.6511516" id="Path-20" stroke-width="3" stroke-linecap="round" stroke-linejoin="round"></path>
            </g>
        </g>
    </g>
</svg>