<?xml version="1.0" encoding="UTF-8" standalone="no"?>
<svg width="32px" height="22px" viewBox="0 0 32 22" version="1.1" xmlns="http://www.w3.org/2000/svg" xmlns:xlink="http://www.w3.org/1999/xlink">
    <!-- Generator: sketchtool 42 (36781) - http://www.bohemiancoding.com/sketch -->
    <title>30DF9DFA-9907-47F7-B14C-1B34AE895F02</title>
    <desc>Created with sketchtool.</desc>
    <defs></defs>
    <g id="Page-1" stroke="none" stroke-width="1" fill="none" fill-rule="evenodd">
        <g id="marafon__iconset" transform="translate(-480.000000, -20.000000)" fill-rule="nonzero" fill="#FFFFFF">
            <path d="M501.548428,20.3308644 C501.11248,19.8897119 500.386916,19.8897119 499.935726,20.3308644 C499.499778,20.7571132 499.499778,21.4665342 499.935726,21.8917894 L508.113052,29.8871827 L481.128993,29.8871827 C480.499968,29.8881763 480,30.377021 480,30.9920513 C480,31.6070816 480.499968,32.1118237 481.128993,32.1118237 L508.113052,32.1118237 L499.935726,40.0923133 C499.499778,40.5334658 499.499778,41.2438804 499.935726,41.6691356 C500.386916,42.1102881 501.113496,42.1102881 501.548428,41.6691356 L511.661607,31.7809593 C512.112798,31.3547105 512.112798,30.6452895 511.661607,30.2200343 L501.548428,20.3308644 Z" id="Shape" transform="translate(496.000000, 31.000000) scale(-1, 1) translate(-496.000000, -31.000000) "></path>
        </g>
    </g>
</svg>