<?xml version="1.0" encoding="UTF-8" standalone="no"?>
<svg width="32px" height="22px" viewBox="0 0 32 22" version="1.1" xmlns="http://www.w3.org/2000/svg" xmlns:xlink="http://www.w3.org/1999/xlink">
    <!-- Generator: sketchtool 42 (36781) - http://www.bohemiancoding.com/sketch -->
    <title>20659AD6-575E-45A1-8E01-BED88DDFF418</title>
    <desc>Created with sketchtool.</desc>
    <defs></defs>
    <g id="Page-1" stroke="none" stroke-width="1" fill="none" fill-rule="evenodd">
        <g id="marafon__iconset" transform="translate(-533.000000, -20.000000)" fill-rule="nonzero" fill="#FFFFFF">
            <path d="M554.548428,20.3308644 C554.11248,19.8897119 553.386916,19.8897119 552.935726,20.3308644 C552.499778,20.7571132 552.499778,21.4665342 552.935726,21.8917894 L561.113052,29.8871827 L534.128993,29.8871827 C533.499968,29.8881763 533,30.377021 533,30.9920513 C533,31.6070816 533.499968,32.1118237 534.128993,32.1118237 L561.113052,32.1118237 L552.935726,40.0923133 C552.499778,40.5334658 552.499778,41.2438804 552.935726,41.6691356 C553.386916,42.1102881 554.113496,42.1102881 554.548428,41.6691356 L564.661607,31.7809593 C565.112798,31.3547105 565.112798,30.6452895 564.661607,30.2200343 L554.548428,20.3308644 Z" id="Shape"></path>
        </g>
    </g>
</svg>