<?xml version="1.0" encoding="UTF-8" standalone="no"?>
<svg width="237px" height="104px" viewBox="0 0 237 104" version="1.1" xmlns="http://www.w3.org/2000/svg" xmlns:xlink="http://www.w3.org/1999/xlink">
    <!-- Generator: sketchtool 42 (36781) - http://www.bohemiancoding.com/sketch -->
    <title>5B241548-B650-4362-805D-6770EE68DD69</title>
    <desc>Created with sketchtool.</desc>
    <defs></defs>
    <g id="Page-1" stroke="none" stroke-width="1" fill="none" fill-rule="evenodd">
        <g id="marafon__iconset" transform="translate(-703.000000, -144.000000)">
            <g id="Group" transform="translate(705.000000, 146.000000)">
                <polyline id="Path-2" stroke="#99BDE6" stroke-width="4" stroke-linecap="round" stroke-linejoin="round" points="120 100 158.346481 100 187 91.4644787 187 54"></polyline>
                <polyline id="Path-2" stroke="#99BDE6" stroke-width="4" stroke-linecap="round" stroke-linejoin="round" transform="translate(85.500000, 77.000000) scale(-1, 1) translate(-85.500000, -77.000000) " points="52 100 92.2334004 100 119 91.4219405 119 54"></polyline>
                <polyline id="Path-2" stroke="#99BDE6" stroke-width="4" stroke-linecap="round" stroke-linejoin="round" transform="translate(93.000000, 31.000000) scale(-1, 1) translate(-93.000000, -31.000000) " points="66.4430899 62 112.415814 62 133.723214 53.6163474 146 48.0300428 66.7961319 0 40 37.3611463"></polyline>
                <polyline id="Path-2" stroke="#99BDE6" stroke-width="4" stroke-linecap="round" stroke-linejoin="round" points="119.237537 62 165.906902 62 187.537179 53.7061491 200 48.1796823 119.480554 1 74.6985052 62"></polyline>
                <path d="M161,54 L166.414604,60.8920408" id="Path-3" stroke="#99BCE6" stroke-width="3" stroke-linecap="round" stroke-linejoin="round"></path>
                <path d="M80,100 L80,62" id="Path-4" stroke="#99BCE6" stroke-width="4" stroke-linecap="round" stroke-linejoin="round"></path>
                <path d="M158,99 L158,74" id="Path-5" stroke="#99BCE6" stroke-width="4" stroke-linecap="round" stroke-linejoin="round"></path>
                <path d="M53,91 L10,91" id="Path-6" stroke="#99BCE6" stroke-width="4" stroke-linecap="round"></path>
                <path d="M87.5,85 L87.5,93" id="Path-6" stroke="#99BCE6" stroke-width="3" stroke-linecap="round"></path>
                <path d="M87.5,78 L87.5,79" id="Path-6" stroke="#99BCE6" stroke-width="3" stroke-linecap="round"></path>
                <path d="M1.57339176,91.5 L0,91.5" id="Path-6" stroke="#99BCE6" stroke-width="4" stroke-linecap="round"></path>
                <polyline id="Path-2" stroke="#99BDE6" stroke-width="4" transform="translate(80.300884, 54.719491) scale(-1, 1) translate(-80.300884, -54.719491) " points="40.6017682 62 86.8305364 62 104.034416 54.7194905 120 47.4389811"></polyline>
                <path d="M187,91 L213,91" id="Path-7" stroke="#99BCE6" stroke-width="4" stroke-linecap="round"></path>
                <path d="M223.445919,91.5 L232.432419,91.5" id="Path-7" stroke="#99BCE6" stroke-width="4" stroke-linecap="round"></path>
            </g>
        </g>
    </g>
</svg>