<?xml version="1.0" encoding="UTF-8" standalone="no"?>
<svg width="28px" height="28px" viewBox="0 0 28 28" version="1.1" xmlns="http://www.w3.org/2000/svg" xmlns:xlink="http://www.w3.org/1999/xlink">
    <!-- Generator: sketchtool 42 (36781) - http://www.bohemiancoding.com/sketch -->
    <title>8C53F6C7-A3F5-4FAA-9741-F4E0463FCA92</title>
    <desc>Created with sketchtool.</desc>
    <defs></defs>
    <g id="Page-1" stroke="none" stroke-width="1" fill="none" fill-rule="evenodd" fill-opacity="0.806980299">
        <g id="marafon__iconset" transform="translate(-353.000000, -168.000000)" fill="#4C63B7">
            <path d="M367,168 C359.268276,168 353,174.26799 353,182 C353,189.73201 359.268276,196 367,196 C374.731724,196 381,189.73201 381,182 C381,174.26799 374.731724,168 367,168 L367,168 Z M374.101545,183.514148 C374.754066,184.151488 375.444399,184.751304 376.030179,185.454527 C376.289698,185.765606 376.534322,186.087284 376.720512,186.449064 C376.986332,186.964951 376.746292,187.53068 376.284542,187.56133 L373.416368,187.560757 C372.675621,187.622056 372.086118,187.323294 371.589136,186.816859 C371.192409,186.413258 370.824327,185.982159 370.44221,185.564808 C370.286097,185.393514 370.121678,185.232246 369.925749,185.10535 C369.534752,184.850987 369.195028,184.9289 368.971028,185.337371 C368.742731,185.753003 368.690598,186.213606 368.668829,186.676215 C368.637606,187.352512 368.433657,187.529248 367.755069,187.561043 C366.305084,187.628931 364.929289,187.408941 363.650598,186.677934 C362.522578,186.033146 361.649494,185.12311 360.888696,184.092767 C359.407202,182.084215 358.272593,179.879734 357.253136,177.611949 C357.023693,177.101217 357.19155,176.827949 357.754987,176.81735 C358.69109,176.799304 359.627192,176.801596 360.563294,176.816491 C360.944266,176.822506 361.196338,177.040491 361.342711,177.39998 C361.848573,178.644583 362.468726,179.828747 363.245852,180.926977 C363.452951,181.219437 363.664348,181.511038 363.965402,181.717565 C364.297678,181.945575 364.550895,181.87024 364.707581,181.499294 C364.807836,181.26355 364.85109,181.011478 364.872859,180.758834 C364.947335,179.893483 364.956215,179.028419 364.827315,178.166506 C364.74711,177.62713 364.443765,177.278813 363.906107,177.176839 C363.632266,177.124992 363.672368,177.023591 363.805565,176.867192 C364.036726,176.596788 364.253279,176.429504 364.686097,176.429504 L367.92665,176.428931 C368.437381,176.529187 368.551959,176.758343 368.621279,177.272798 L368.624143,180.873985 C368.618128,181.073064 368.724113,181.663141 369.081596,181.793473 C369.368041,181.888 369.557095,181.658271 369.728389,181.476951 C370.505514,180.652276 371.059212,179.678936 371.555049,178.671509 C371.773893,178.227233 371.96266,177.767488 372.145985,177.306885 C372.282332,176.966302 372.494302,176.798731 372.878711,176.80446 L375.999243,176.808184 C376.091192,176.808184 376.184573,176.809043 376.275662,176.824798 C376.801575,176.914742 376.945657,177.141033 376.782957,177.654056 C376.526875,178.460113 376.02932,179.13154 375.542936,179.804685 C375.021606,180.525381 374.465616,181.22087 373.949442,181.944716 C373.47509,182.606404 373.512614,182.93954 374.101545,183.514148 L374.101545,183.514148 Z" id="vk"></path>
        </g>
    </g>
</svg>