<svg width="465" height="236" viewBox="0 0 465 236" xmlns="http://www.w3.org/2000/svg" xmlns:xlink="http://www.w3.org/1999/xlink"><svg width="28" height="28" viewBox="-2 -2 28 28" id="checkbox-square" x="333" y="182"><title>5B5ACEA9-6E9C-4087-A6BA-87D4BEA94D35</title><defs><path id="aa" d="M353 119h24v24h-24z"/><mask id="ab" x="0" y="0" width="24" height="24" fill="#fff"><use xlink:href="#aa"/></mask></defs><use mask="url(#ab)" xlink:href="#aa" transform="translate(-353 -119)" stroke="#D3DBE5" stroke-width="4" fill="none" fill-rule="evenodd"/></svg><svg width="224" height="106" viewBox="-2 -2 224 106" id="forest" x="241"><title>E0994F7F-A012-4BBF-9584-B4382BA4C88F</title><g transform="translate(1 2)" stroke="#99BCE6" fill="none" fill-rule="evenodd" stroke-linecap="round" stroke-linejoin="round"><path d="M191.985 86H96.374M76.062 86h-9.688M216.062 86h-9.688M56.062 86H1M13.273 47.164S30.102 14.36 42.703 24.63c12.602 10.27 9.637 22.535 23.016 22.535C79.098 47.164 90.89.941 105.563.941c14.671 0 14.156 26.239 23.57 30.946M166 98V19.964M165.865 7.626l15.302 24.975-9.776.581 13.838 18.276h-13.156l19.16 19.099-25.846-.23" stroke-width="4"/><path d="M165.755 7.626l-15.303 24.975 9.777.581-13.838 18.276h13.156l-19.16 19.099 25.846-.23" stroke-width="4"/><path d="M109.946 11.608s-3.6-3.233-7.856.661c-4.257 3.895-7.268 9.663-8.09 10.823M91.145 28.027l-2.373 3.817" stroke-width="3"/></g></svg><svg width="33" height="27" viewBox="-2 -2 33 27" id="group-6" x="317" y="149"><title>BC73851A-7140-4BB1-A887-7F48B0713EC8</title><path d="M26.389 7.029L13.303 20.115a2.926 2.926 0 0 1-2.083.863 2.926 2.926 0 0 1-2.083-.863l-6.67-6.67a2.926 2.926 0 0 1-.863-2.082c0-.787.307-1.527.863-2.084a2.926 2.926 0 0 1 2.083-.862c.787 0 1.527.306 2.083.863l4.586 4.586L22.223 2.863A2.926 2.926 0 0 1 24.306 2c.786 0 1.526.306 2.082.863a2.949 2.949 0 0 1 0 4.166z" stroke="#FFF" stroke-width="3" fill="#000" fill-rule="nonzero"/></svg><svg width="33" height="27" viewBox="-2 -2 33 27" id="group-6_2" x="350" y="149"><title>6FAB1F7F-EEF2-4FD2-8783-6152B3E93B0A</title><path d="M26.389 7.029L13.303 20.115a2.926 2.926 0 0 1-2.083.863 2.926 2.926 0 0 1-2.083-.863l-6.67-6.67a2.926 2.926 0 0 1-.863-2.082c0-.787.307-1.527.863-2.084a2.926 2.926 0 0 1 2.083-.862c.787 0 1.527.306 2.083.863l4.586 4.586L22.223 2.863A2.926 2.926 0 0 1 24.306 2c.786 0 1.526.306 2.082.863a2.949 2.949 0 0 1 0 4.166z" stroke="#FFF" stroke-width="3" fill="#000" fill-rule="nonzero"/></svg><svg width="20" height="15" viewBox="-2 -2 20 15" id="group-6_3" x="345" y="132"><title>0F3F1ED1-F5D9-4026-8E68-54DE4C9BC0D0</title><path d="M14.858 2.956l-7.526 7.526c-.32.32-.745.496-1.198.496-.453 0-.878-.176-1.198-.496L1.101 6.646a1.683 1.683 0 0 1-.497-1.198c0-.453.176-.878.497-1.198.32-.32.745-.496 1.197-.496.453 0 .878.176 1.198.496l2.638 2.638L12.462.56c.32-.32.745-.496 1.198-.496a1.696 1.696 0 0 1 1.198 2.892z" fill-rule="nonzero" fill="#019846"/></svg><svg width="32" height="32" viewBox="-2 -2 32 32" id="instagram" x="241" y="182"><title>F0B72AA4-FBED-439F-BAB8-0B5BA6B1E018</title><defs><linearGradient x1="50%" y1="0%" x2="50%" y2="100%" id="fa"><stop stop-color="#FEAB49" offset="0%"/><stop stop-color="#D93282" offset="49.655%"/><stop stop-color="#9935A8" offset="100%"/></linearGradient><linearGradient x1="50%" y1="100%" x2="50%" y2="0%" id="fb"><stop stop-color="#FEAB49" offset="0%"/><stop stop-color="#D93282" offset="49.655%"/><stop stop-color="#9935A8" offset="100%"/></linearGradient></defs><g fill="none" fill-rule="evenodd"><path d="M20.127 9.12a.997.997 0 1 0 .811-1.583.999.999 0 1 0-.81 1.582z" fill="url(#fa)"/><path d="M0 14C0 6.28 6.28 0 14 0s14 6.28 14 14c0 7.719-6.281 14-14 14-7.72 0-14-6.281-14-14zM14 2.997c-6.065 0-11 4.935-11 11s4.935 11 11 11 11-4.935 11-11-4.934-11-11-11z" fill="url(#fb)"/><path d="M8 14c0-3.308 2.692-6 6-6 3.309 0 6 2.692 6 6s-2.692 6-6 6-6-2.692-6-6zm2 0c0 2.205 1.794 4 4 4 2.205 0 4-1.795 4-4 0-2.206-1.794-4-4-4s-4 1.794-4 4z" fill="url(#fb)"/></g></svg><svg width="28" height="43" viewBox="-2 -2 28 43" id="mouse" x="317" y="106"><title>0D8775C8-E7A1-44BB-B5EF-55F4BB90970D</title><path d="M21.553 3.743C19.442 1.259 16.228 0 12 0 7.772 0 4.558 1.26 2.447 3.743.325 6.239.007 9.165.007 10.686v17.628c0 1.521.318 4.447 2.44 6.944C4.558 37.74 7.772 39 12 39c4.228 0 7.442-1.26 9.553-3.742 2.122-2.497 2.44-5.423 2.44-6.944V10.686c0-1.521-.318-4.447-2.44-6.943zM12 13.587a1.593 1.593 0 0 1-1.589-1.593V8.579c0-.88.713-1.594 1.589-1.594s1.589.715 1.589 1.594v3.415c0 .878-.713 1.593-1.589 1.593zm10.738 14.727c0 1.574-.518 9.428-10.738 9.428-10.22 0-10.738-7.854-10.738-9.428V10.686c0-1.541.498-9.1 10.11-9.417v4.529a2.854 2.854 0 0 0-2.215 2.78v3.416c0 1.356.949 2.493 2.216 2.78v5.17a.628.628 0 1 0 1.254 0v-5.17a2.854 2.854 0 0 0 2.216-2.78V8.579c0-1.357-.949-2.494-2.216-2.781V1.269c9.613.316 10.11 7.876 10.11 9.417v17.628z" fill-rule="nonzero" fill="#FFF"/></svg><svg width="76" height="76" viewBox="-2 -2 76 76" id="play" x="241" y="106"><title>82BED2F5-E7BD-4D83-9D15-02F32E1038F1</title><g fill-rule="nonzero" fill="#FFF"><path d="M61.456 10.544C54.656 3.744 45.616 0 36 0S17.344 3.745 10.544 10.544C3.744 17.344 0 26.384 0 36s3.745 18.656 10.544 25.456C17.344 68.256 26.384 72 36 72s18.656-3.745 25.456-10.544C68.256 54.656 72 45.616 72 36s-3.745-18.656-10.544-25.456zM36 69.132C17.731 69.132 2.868 54.269 2.868 36S17.731 2.868 36 2.868 69.132 17.731 69.132 36 54.269 69.132 36 69.132z"/><path d="M52.12 32.141l-20.613-13.94a4.65 4.65 0 0 0-4.794-.256 4.65 4.65 0 0 0-2.474 4.115v27.88c0 1.727.948 3.304 2.474 4.114a4.655 4.655 0 0 0 4.794-.256l20.613-13.94A4.653 4.653 0 0 0 54.17 36a4.653 4.653 0 0 0-2.05-3.859zm-1.607 5.341L29.9 51.422a1.763 1.763 0 0 1-1.842.099 1.763 1.763 0 0 1-.95-1.581V22.06c0-.674.355-1.265.95-1.58.269-.144.557-.214.843-.214.347 0 .693.104 1 .311l20.612 13.94c.501.338.788.879.788 1.483 0 .604-.287 1.144-.788 1.482zM63.333 25.143A29.49 29.49 0 0 0 46.404 8.492a1.434 1.434 0 1 0-1.015 2.683 26.616 26.616 0 0 1 15.278 15.028 1.435 1.435 0 1 0 2.666-1.06zM40.974 7.017A29.671 29.671 0 0 0 36 6.597a1.434 1.434 0 1 0 0 2.87c1.508 0 3.019.127 4.492.378a1.435 1.435 0 0 0 .482-2.828z"/></g></svg><svg width="224" height="128" viewBox="-2 -2 224 128" id="present" y="108"><title>AAEE5693-323F-45FB-A288-101811F9A88A</title><defs><rect id="ia" x="44" y="34" width="72" height="72" rx="8"/><mask id="id" x="0" y="0" width="72" height="72" fill="#fff"><use xlink:href="#ia"/></mask><rect id="ib" x="88.093" y="59.224" width="70" height="43" rx="8"/><mask id="ie" x="0" y="0" width="70" height="43" fill="#fff"><use xlink:href="#ib"/></mask><rect id="ic" x="108.652" y="74.662" width="70" height="43" rx="8"/><mask id="if" x="0" y="0" width="70" height="43" fill="#fff"><use xlink:href="#ic"/></mask></defs><g transform="translate(1 2)" stroke="#99BCE6" fill="none" fill-rule="evenodd"><path d="M191.985 95H96.374M76.062 95H75M216.062 95h-9.688M56.062 95H1" stroke-width="4" stroke-linecap="round" stroke-linejoin="round"/><use mask="url(#id)" stroke-width="8" fill="#FFF" xlink:href="#ia"/><use mask="url(#ie)" stroke-width="8" fill="#FFF" transform="rotate(-19 123.093 80.724)" xlink:href="#ib"/><use mask="url(#if)" stroke-width="8" fill="#FFF" transform="rotate(-8 143.652 96.162)" xlink:href="#ic"/><path d="M61 36s8.562 52.468 26.55 68.115M46 84.187s30.189-30.573 67.57-26.877" stroke-width="3"/><path d="M89 36.148s48.348-15.753 36.048-32.638C112.748-13.375 89 36.148 89 36.148zM88.36 36.236S86.536-5.543 71.132 3.204c-15.403 8.747 17.23 33.032 17.23 33.032z" stroke-width="3" stroke-linecap="round" stroke-linejoin="round"/><path d="M88.583 35.055S72.595 34.84 58.717 20.16c-13.877-14.68-30.805-.294-30.805-.294M88.105 35.809S62.659 39.21 50 28M167.597 91.228s2.02 8.47 0 11.254c-2.019 2.785-9.507 2.733-9.507 2.733M166.762 86.002l-.278-1.35" stroke-width="3" stroke-linecap="round" stroke-linejoin="round"/></g></svg><svg width="28" height="28" viewBox="-2 -2 28 28" id="rectangle-10_2" x="305" y="182"><title>F316C2CB-33E2-475A-A515-F5C3711DE637</title><defs><path id="ja" d="M393 119h24v24h-24z"/><mask id="jb" x="0" y="0" width="24" height="24" fill="#fff"><use xlink:href="#ja"/></mask></defs><use mask="url(#jb)" xlink:href="#ja" transform="translate(-393 -119)" stroke="#D3DBE5" stroke-width="4" fill="none" fill-rule="evenodd"/></svg><svg width="36" height="26" viewBox="-2 -2 36 26" id="shape" x="381" y="106"><title>20659AD6-575E-45A1-8E01-BED88DDFF418</title><path d="M21.548.33a1.148 1.148 0 0 0-1.612 0 1.095 1.095 0 0 0 0 1.562l8.177 7.995H1.13A1.111 1.111 0 0 0 0 10.992c0 .615.5 1.12 1.129 1.12h26.984l-8.177 7.98a1.114 1.114 0 0 0 0 1.577 1.148 1.148 0 0 0 1.612 0l10.114-9.888a1.07 1.07 0 0 0 0-1.561L21.548.33z" fill-rule="nonzero" fill="#FFF"/></svg><svg width="36" height="26" viewBox="-2 -2 36 26" id="shape_2" x="345" y="106"><title>30DF9DFA-9907-47F7-B14C-1B34AE895F02</title><path d="M10.452.33a1.148 1.148 0 0 1 1.612 0 1.095 1.095 0 0 1 0 1.562L3.887 9.887H30.87c.629.001 1.129.49 1.129 1.105s-.5 1.12-1.129 1.12H3.887l8.177 7.98a1.114 1.114 0 0 1 0 1.577 1.148 1.148 0 0 1-1.612 0L.338 11.781a1.07 1.07 0 0 1 0-1.561L10.452.33z" fill-rule="nonzero" fill="#FFF"/></svg><svg width="22" height="14" viewBox="-2 -2 22 14" id="shape_3" x="417" y="106"><title>B757D566-61D4-43BE-847F-BBFF9E607D1E</title><path d="M8.109 9.64L.369 2.097A1.206 1.206 0 0 1 .37.36c.493-.48 1.29-.48 1.783 0L9 7.034 15.848.36c.492-.48 1.29-.48 1.783 0 .492.48.492 1.257 0 1.737L9.89 9.64c-.246.24-.568.36-.89.36-.323 0-.646-.12-.892-.36z" fill-rule="nonzero" fill="#7A8FA8"/></svg><svg width="22" height="14" viewBox="-2 -2 22 14" id="shape_4" x="439" y="106"><title>02D5CD3E-834F-4F89-9308-590C6317A552</title><path d="M8.109.36L.369 7.903a1.206 1.206 0 0 0 0 1.737c.493.48 1.29.48 1.783 0L9 2.966l6.848 6.674c.492.48 1.29.48 1.783 0a1.206 1.206 0 0 0 0-1.737L9.89.36a1.273 1.273 0 0 0-.89-.36c-.323 0-.646.12-.892.36z" fill-rule="nonzero" fill="#7A8FA8"/></svg><svg width="241" height="108" viewBox="-2 -2 241 108" id="urta"><title>5B241548-B650-4362-805D-6770EE68DD69</title><g transform="translate(2 2)" fill="none" fill-rule="evenodd"><path stroke="#99BDE6" stroke-width="4" stroke-linecap="round" stroke-linejoin="round" d="M120 100h38.346L187 91.464V54M119 100H78.767L52 91.422V54M119.557 62H73.584l-21.307-8.384L40 48.03 119.204 0 146 37.361"/><path stroke="#99BDE6" stroke-width="4" stroke-linecap="round" stroke-linejoin="round" d="M119.238 62h46.669l21.63-8.294L200 48.18 119.48 1 74.7 62"/><path d="M161 54l5.415 6.892" stroke="#99BCE6" stroke-width="3" stroke-linecap="round" stroke-linejoin="round"/><path d="M80 100V62M158 99V74" stroke="#99BCE6" stroke-width="4" stroke-linecap="round" stroke-linejoin="round"/><path d="M53 91H10" stroke="#99BCE6" stroke-width="4" stroke-linecap="round"/><path d="M87.5 85v8M87.5 78v1" stroke="#99BCE6" stroke-width="3" stroke-linecap="round"/><path d="M1.573 91.5H0" stroke="#99BCE6" stroke-width="4" stroke-linecap="round"/><path stroke="#99BDE6" stroke-width="4" d="M120 62H73.771l-17.204-7.28-15.965-7.281"/><path d="M187 91h26M223.446 91.5h8.986" stroke="#99BCE6" stroke-width="4" stroke-linecap="round"/></g></svg><svg width="32" height="32" viewBox="-2 -2 32 32" id="vk" x="273" y="182"><title>8C53F6C7-A3F5-4FAA-9741-F4E0463FCA92</title><path d="M14 0C6.268 0 0 6.268 0 14s6.268 14 14 14 14-6.268 14-14S21.732 0 14 0zm7.102 15.514c.652.637 1.342 1.237 1.928 1.94.26.312.504.633.69.995.266.516.026 1.082-.435 1.112h-2.869c-.74.061-1.33-.238-1.827-.744-.397-.404-.765-.835-1.147-1.252a2.682 2.682 0 0 0-.516-.46c-.391-.254-.731-.176-.955.232-.228.416-.28.877-.302 1.34-.031.676-.235.852-.914.884-1.45.068-2.826-.152-4.104-.883-1.128-.645-2.002-1.555-2.762-2.585-1.482-2.009-2.616-4.213-3.636-6.481-.23-.51-.061-.784.502-.795a79.811 79.811 0 0 1 2.808 0c.381.006.633.223.78.583a17.427 17.427 0 0 0 1.903 3.527c.207.292.418.584.72.79.332.229.585.153.742-.218.1-.235.143-.488.165-.74.074-.866.083-1.73-.046-2.592-.08-.54-.383-.888-.92-.99-.275-.052-.235-.153-.101-.31.23-.27.447-.437.88-.437l3.24-.001c.511.1.626.33.695.844l.003 3.601c-.006.2.1.79.458.92.286.094.475-.136.646-.317.778-.825 1.331-1.798 1.827-2.805.219-.445.408-.905.591-1.365.136-.34.348-.508.733-.503l3.12.004c.092 0 .186.001.277.017.526.09.67.316.507.83-.256.805-.754 1.477-1.24 2.15-.521.72-1.077 1.416-1.594 2.14-.474.661-.436.995.153 1.57z" fill="#4C63B7" fill-rule="evenodd" fill-opacity=".807"/></svg></svg>